<svg xmlns="http://www.w3.org/2000/svg" width="85.899" height="83.776" viewBox="0 0 22.726979 22.166171"><defs><clipPath id="a"><path fill="none" stroke="#202020" stroke-width=".317" d="M-80.9 201.55l29.12 26.24-49.86 51.85-29.13-26.24z" stroke-linejoin="round"/></clipPath><filter id="c" width="1.048" height="1.048" x="-.024" y="-.024" color-interpolation-filters="sRGB"><feGaussianBlur stdDeviation=".219"/></filter><filter id="b" width="1.024" height="1.024" x="-.012" y="-.012" color-interpolation-filters="sRGB"><feGaussianBlur stdDeviation=".11"/></filter></defs><g><path fill="#9d7d4a" d="M9.54 15.83c.07-.13-.03-.18-.08-.07-.28.58-.52 1.02-1.1 1.36a2.9 2.9 0 0 1-2.24.28c-1.73-.54-.63-3.25-.4-3.56.36.72.98 1.04 1.67 1.14 2.74.4 3.7-2.82 1.1-3.1-1.07-.13-2.07.28-2.8 1.2-.06-.35-.1-.84-.05-1.26.04-.2-.1-.15-.13-.03-.14.47-.08 1.1.02 1.5-.92 1.18-1.35 3.5.33 4.2.97.43 1.92.18 2.6-.3.57-.4.8-.8 1.08-1.4zm-1-3.7c1.95.27 1.35 2.95-1.06 2.7-.73-.1-1.32-.43-1.62-1.2.66-1 1.68-1.66 2.68-1.5z" word-spacing="0" letter-spacing=".362" font-size="7.715" font-weight="400" style="line-height:1.25;-inkscape-font-specification:'Great Vibes, Normal';font-variant-ligatures:normal;font-variant-caps:normal;font-variant-numeric:normal;font-feature-settings:normal;text-align:start" font-family="Great Vibes"/><path fill="#9d7d4a" d="M11.53 14.8c.13-.3-.38-.3-.57.3-.06.2-.04.47.06.68-.26.66-.62 1.22-.94 1.08-.18-.08 0-.57.16-1 .08-.23.18-.6.2-.82 0-.33-.06-.3-.25-.28-.06 0-.34.06-.34.06.18.04.12.56-.02.82l-.12.23c-.04.1.05.14.12.02-.18.5-.35 1.1.05 1.2.9.17 1.47-1.8 1.63-2.27 0 0 0-.02.02-.03zm2.05 1c.07-.14-.07-.12-.12 0-.15.35-.5 1.14-1.1 1.14-.44 0-.33-.67-.23-.9.18 0 .62-.15.82-.3.43-.34.62-.8.37-1-.28-.2-.8.05-1.13.45-.3.33-.53.83-.53 1.23 0 .42.3.64.64.64.75 0 1.03-.74 1.28-1.27zm-.7-.18c-.23.2-.58.3-.7.3.06-.13.22-.42.4-.64.82-1 .85-.12.3.34zm2.56-1.1h-.32c.1-.2.2-.38.3-.58.5-1.07-.23-1.18-.7-.37-.16.28-.33.6-.48.94h-.4c-.08 0-.1.17 0 .17h.33c-.2.52-.46 1.25-.52 1.7-.1.74.56.86.92.5.25-.24.36-.42.66-1.03.08-.14-.02-.17-.08-.04-.18.35-.4.77-.7 1-.23.16-.54.1-.43-.35 0 0 .08-.5.14-.68a4.57 4.57 0 0 0 .9-1.1h.38c.06 0 .08-.16 0-.16zm-.13-.7c-.1.23-.2.47-.33.7h-.33c.17-.4.3-.75.47-.98.43-.58.33 0 .2.3zm-.4.84c-.2.32-.44.63-.7.9.1-.24.23-.57.37-.9z" word-spacing="0" letter-spacing=".362" font-size="7.715" font-weight="400" style="line-height:1.25;-inkscape-font-specification:'Great Vibes, Normal';font-variant-ligatures:normal;font-variant-caps:normal;font-variant-numeric:normal;font-feature-settings:normal;text-align:start" font-family="Great Vibes"/><path fill="none" d="M19.5 17.63c-.9-.06-1.7.42-2.35.98.87.14 1.75-.36 2.34-.96zm-3.13 1.15c.4-.78.72-1.65.6-2.54-.64.68-.6 1.67-.6 2.54zM14.2 21.1c.47.1.94.08 1.4 0 .22 0 .5.06.14-.1-.66-.37-1.46-.4-2.16-.17.17.16.4.25.63.28zm3.38-1.27c.23-.05.66-.36.6-.48-.43.16-.88.34-1.34.23-.57-.04-1.08.27-1.58.5.36.07.9-.03 1.32-.04a4.04 4.04 0 0 0 1-.2zm-2.46-1.9c-.33.37-.8.6-1.13.97-.15.37-.24.76-.4 1.14.86-.37 1.26-1.28 1.5-2.1zm3.3-3.78c-.1.42-.22.83-.4 1.23-.2.5-.13 1.06.07 1.56.14.17.2-.44.26-.56.2-.72.28-1.5.05-2.23zM21 12.17c-.34.3-.5.78-.68 1.2-.05.2-.43.8-.03.45.4-.3.6-.8.66-1.28.02-.1.1-.27.04-.37zm-1.12 1.76c.1-.66-.17-1.32-.5-1.88-.16.63-.15 1.43.44 1.84zm.8 1.12c-.53.2-.92.64-1.25 1.1-.15.27-.7.64-.7.76.96-.1 1.64-1 1.97-1.84z"/><path fill="none" d="M21.04 12c-.07 0-.1.04-.14.08a3.7 3.7 0 0 0-.52.84c-.12.28-.24.57-.4.85 0-.2-.04-.42-.06-.63-.03-.42-.22-.77-.44-1.1-.05-.08-.05-.26-.2-.23-.07.04-.04.2-.06.3-.08.35-.07.7-.02 1.07a.93.93 0 0 0 .34.6c.25.23.3.47.18.8-.26.6-.6 1.18-.97 1.73a7.8 7.8 0 0 1-.24.34c0 .03-.02.08-.07.06-.05-.02-.02-.08-.02-.12.06-.2.1-.4.16-.62a3.7 3.7 0 0 0-.06-1.94c-.03-.06-.05-.1-.07-.15-.02-.04-.03-.08-.08-.07-.06 0-.05.06-.06.1-.06.58-.3 1.1-.48 1.64-.14.4-.07.8.07 1.2.1.34.06.63-.18.9a7.48 7.48 0 0 1-1.2 1.1c.1-.2.18-.42.26-.6.2-.5.27-1.02.28-1.55V16c0-.05 0-.1-.07-.1-.06-.02-.08.02-.1.06-.13.43-.43.76-.54 1.2-.1.35-.08.7-.1 1.05 0 .28-.08.53-.14.78a.34.34 0 0 1-.16.22c-.76.5-1.56.9-2.4 1.2-.02 0-.04 0-.1 0 .25-.2.45-.4.7-.56.36-.28.63-.63.78-1.08.1-.33.24-.64.35-.97 0-.08.05-.15 0-.2-.08-.02-.1.05-.15.1-.27.3-.6.6-.94.8-.3.2-.42.5-.5.8-.06.3-.16.6-.34.86a.98.98 0 0 1-.65.44c-.43.08-.87.17-1.3.2-.07 0-.16-.02-.16.06 0 .06.1.06.14.08.32.15.66.04 1-.03.17 0 .34-.06.5-.12.1-.04.2-.05.3.02.66.5 1.4.56 2.17.45.33-.04.66-.04.97.08.05.02.1.04.14-.02.03-.05-.05-.1-.1-.1-.5-.26-1-.53-1.55-.6-.3-.06-.63 0-.94.06-.18.03-.35.05-.54-.02.4-.13.78-.3 1.17-.46.15-.07.33 0 .5 0 .9.07 1.8.03 2.65-.28a1.3 1.3 0 0 0 .5-.3.56.56 0 0 0 .1-.18c.04-.06.06-.13 0-.18-.04-.04-.1-.03-.15 0-.02 0-.05.02-.08.03-.43.18-.88.26-1.36.18-.3-.04-.6.1-.9.24-.23.1-.46.2-.72.2.58-.3 1.13-.67 1.63-1.1a.23.23 0 0 1 .17-.05c.2 0 .38-.02.56-.02.44 0 .85-.1 1.23-.34a5.64 5.64 0 0 0 1.1-.86c.03-.04.1-.08.06-.14-.07-.05-.1 0-.16.02a1.1 1.1 0 0 1-.38.1c-.7.03-1.32.26-1.84.74-.06.05-.13.13-.23.14 0-.08.05-.1.1-.15.2-.2.4-.4.57-.63.23-.34.53-.5.9-.6.82-.22 1.4-.73 1.78-1.5.1-.2.2-.4.3-.6.03-.05.05-.12 0-.15-.04-.03-.08 0-.1.05-.12.12-.26.2-.4.25a2.45 2.45 0 0 0-.8.7c-.18.22-.33.46-.54.64-.13.15-.26.3-.46.4.1-.23.25-.4.38-.6.36-.53.67-1.12.95-1.7.13-.27.27-.47.5-.63.32-.23.5-.53.57-.9.06-.27.1-.53.13-.8 0-.06.02-.13-.06-.15z" class="st0"/><path fill="none" d="M13.9 19.15c.1-.47.6-.63.9-.93.15-.12.42-.44.25-.08-.26.77-.67 1.56-1.45 1.9.1-.3.2-.6.28-.9zm2.06 1.97c-.46-.1-.9.12-1.38.04-.3 0-.97-.14-.94-.35.78-.22 1.64-.13 2.32.33zm-.05-1.36c.4-.2.87-.22 1.3-.16.36 0 .7-.16 1.03-.28-.24.47-.82.57-1.3.67-.54.07-1.1.05-1.65.1.1-.16.44-.23.64-.35zm1.06-3.52c.13.9-.2 1.76-.6 2.54.02-.87-.03-1.85.6-2.54zm2.53 1.4c-.6.57-1.38 1.03-2.2 1-.3-.04.27-.3.37-.43.53-.36 1.16-.6 1.82-.56zm-1.4-.66c-.16-.46-.3-.98-.13-1.47.15-.4.34-.84.42-1.3.14.18.17.9.13 1.3-.08.5-.17 1.1-.4 1.5zm1.54-1.12c.22-.33.74-.75 1-.76-.32.82-.96 1.63-1.87 1.8-.33.05.28-.28.35-.42a4.83 4.83 0 0 0 .53-.62zm.23-1.93c-.5-.32-.66-.97-.56-1.54.03-.2.04-.5.17-.18.27.5.5 1.1.4 1.7zM21 12.26c-.07.52-.17 1.1-.6 1.47-.15.14-.46.4-.23.02.22-.54.4-1.13.8-1.57.05-.02.05.05.04.08z"/><path fill="#9d7d4a" stroke="#9d7d4a" stroke-width=".057" d="M8.06.85c.1-.16.22-.36.3-.58.1-.26.1-.25-.18-.23-.28.02-.5.22-.8.17 0 0-.03.04-.04.04-.2.1-.42.17-.66.2-.32.06-.58.2-.8.5a1.9 1.9 0 0 0-.34.84c-.03.2-.1.4-.24.56-.1.1-.2.12-.3.18-.05.05-.06.1-.04.15.02.06.05.08.12.06.5-.1.97-.2 1.42-.43A3.58 3.58 0 0 0 8.06.85zM8.4.1C8 .86 7.6 1.6 6.8 2c.26-.3.4-.62.55-.97.06-.15.12-.3.2-.44.17-.3.46-.44.84-.5zm-2.5 1c.23-.32.5-.57.94-.6-.2.18-.32.42-.46.64-.13.2-.17.46-.32.65-.15.2-.37.36-.64.5.25-.4.24-.84.5-1.2zm-.15 1.36c-.23.06-.46.1-.7.15.1-.07.18-.1.28-.13.5-.22.86-.55 1.02-1.1.16-.5.5-.87 1-1.04a.4.4 0 0 1 .25 0c-.2.3-.3.66-.45 1-.3.62-.77.98-1.4 1.14z" class="st2"/><path fill="#9d7d4a" stroke="#9d7d4a" stroke-width=".057" d="M1.06 4.77c-.15.23-.4.53-.35.8.36.05.68-.2 1.03-.15.3-.15.65-.18.97-.27.55-.2.84-.8.93-1.35 0-.38.47-.46.57-.7-.2-.17-.55.06-.8.06-.96.2-1.82.8-2.35 1.6zM.7 5.5c.43-.7.87-1.48 1.65-1.83-.4.4-.53.97-.82 1.44-.2.28-.52.38-.82.4zm2.53-.9c-.17.3-.72.6-.92.5.37-.3.53-.76.77-1.16.13-.23.53-.5.67-.5-.22.36-.25.8-.5 1.15zm.2-1.36c.2-.02.6-.13.67-.1-.33.18-.7.3-.96.58-.35.35-.36.9-.74 1.23-.24.22-.56.43-.9.37.36-.56.48-1.3 1.07-1.7a2.2 2.2 0 0 1 .86-.38z"/><path fill="#9d7d4a" stroke="#9d7d4a" stroke-width=".033" d="M2.96 6.54c.06.27.08.67.3.83.3-.18.33-.6.63-.78.12-.35.34-.6.53-.9.26-.54.06-1.17-.24-1.64-.27-.28.02-.66-.1-.9-.25.03-.35.4-.5.6a3.7 3.7 0 0 0-.64 2.77zm.25.78c-.17-.8-.37-1.68-.05-2.48-.03.6.3 1.1.4 1.68 0 .3-.16.57-.34.8zm1.2-2.4c.1.34-.1.95-.3 1.02.05-.47-.14-.92-.25-1.37-.05-.26.04-.73.14-.82.1.4.4.75.42 1.17zm-.75-1.1c.13-.16.33-.5.42-.53-.12.33-.32.67-.3 1.06-.02.5.35.9.3 1.4-.03.32-.12.7-.4.9-.1-.66-.53-1.27-.4-1.95.05-.32.2-.63.38-.9z"/><path fill="#9d7d4a" stroke="#9d7d4a" stroke-width=".08" d="M6.1.94c-.27-.3-.83.07-1.1.3-.2.33-.26-.32-.47-.4-.2-.18-.45-.7-.7-.28-.46.32-.8.85-.82 1.42-.3.24-.72.37-.92.73-.2.27-.36.6 0 .8.3.33.74.56 1.2.5.13.32.24.73.55 1 .27.22.7.53 1.06.4.05-.46.57-.7.52-1.2.5.1 1.06-.03 1.4-.4.2-.26.65-.66.5-.94-.3-.2-.85-.2-1.06-.28.35-.36.3-.94 0-1.32a1.73 1.73 0 0 1-.13-.3zm-.23 1.78c-.25.23-.86.22-.98.03.44-.17.82-.58.82-1.08.05-.2.1-.7.35-.65.14.36.37.74.23 1.14a1.02 1.02 0 0 1-.42.56zm.27.66c-.22-.08-.7-.3-.68-.4.35-.1.66-.32 1.03-.24.26 0 1 .14.53.46-.25.17-.6.27-.9.18zm-1.4.46c-.27-.2-.63-.6-.45-.92.5-.17 1 .04 1.4.33.4.27.97.32 1.4.02-.06.14-.38.63-.68.73a1.6 1.6 0 0 1-1.67-.16zm0 1.33c-.28-.3-.45-.7-.38-1.13.04-.2-.03-.6.18-.27.2.28.62.27.77.54-.03.37-.3.66-.5.9zM3.9 3.1c.33-.23.3.4.4.6-.04.37-.1.78.1 1.13.04.2.5.47.3.5-.5 0-.8-.45-1.1-.76-.33-.5-.08-1.1.3-1.47zm.1-.75c.25.17.46.55 0 .58-.35.15-.53.52-.64.87-.34.2-.77.03-1.05-.2-.3-.18-.52-.53-.17-.8.35-.47.96-.85 1.56-.65.1.04.2.1.3.2zm-.7-1.07c-.1.25.35.8-.13.7-.06-.25.04-.5.14-.7zm1.3 1.34c-.27.4-.4-.36-.65-.42-.4-.1-.56-.48-.55-.87-.03-.4.35-.6.6-.8.23.08.37.36.56.54.35.43.4 1.1.03 1.55zM5.9.92c-.37.37-.15 1-.53 1.4a1.1 1.1 0 0 1-.73.37c.28-.36.3-.8.26-1.2.23-.35.63-.53 1.02-.6z"/><path fill="none" stroke="#202020" stroke-width=".413" d="M-122.13 247.06A28.73 27.93 0 0 1-97.7 215.5a28.73 27.93 0 0 1 32.47 23.72 28.73 27.93 0 0 1-24.4 31.58 28.73 27.93 0 0 1-32.5-23.73" transform="matrix(.354 -.001 .001 .354 43.165 -75.32)" clip-path="url(#a)" stroke-linejoin="round"/><path fill="none" stroke="#202020" stroke-width=".467" d="M-122.13 247.06a28.73 27.93 0 0 1 24.4-31.57 28.73 27.93 0 0 1 32.5 23.67 28.73 27.93 0 0 1-24.34 31.6 28.73 27.93 0 0 1-32.54-23.62" transform="matrix(.312 -.087 .087 .312 18.206 -73.329)" clip-path="url(#a)" stroke-linejoin="round"/><path fill="#202020" d="M5.7 7c.34-.34.2-.9-.2-1.12-.4-.24-1.25-.2-1.8.03-.85.37-1.36 1.36-.5 2 .4.36 1.17.6 1.52.93.7.66.3 1.8-.66 2.4-1.14.7-3.18.52-3.16-1.14 0-.44.1-.9.3-1.26.12-.2.25-.36.4-.5.2-.17.03-.14-.05-.1-.56.3-1 1.2-.97 1.85.1 1.9 2.52 2.06 3.8 1.16.96-.67 1.72-1.93.56-2.78-.42-.3-1-.54-1.34-.8-.77-.54-.37-1.3.3-1.58 1.84-.78 2.16.88 1.45.98-.2.03-.18.18-.03.14.17-.06.3-.13.38-.22zm2.07 1.9c.1-.28-.32-.28-.48.32a1.2 1.2 0 0 0 .03.67c-.22.64-.53 1.2-.8 1.06-.15-.08 0-.58.13-1.02.08-.22.16-.6.17-.8 0-.34-.04-.3-.2-.28-.05 0-.3.05-.3.05.17.06.1.58 0 .84l-.1.23c-.04.1.03.13.1.02-.16.5-.3 1.1.04 1.2.78.17 1.26-1.78 1.4-2.26 0-.02 0-.03 0-.04zm2.32 1.03c.05-.13-.04-.17-.1-.05-.1.3-.5 1.14-.72 1.12-.08 0-.1-.12-.06-.4.08-.4.42-1.1.54-1.25-.08.02-.17-.02-.24-.03-.18 0-.26.15-.4.43-.13.33-.3.66-.5.94-.26.35-.57.4-.5-.06.02-.26.17-.58.22-.68.2-.4.5-.8.75-.95.2-.13.4-.1.5.17.07.02.12-.1.04-.2-.33-.4-.98-.16-1.32.32-.86 1.2-.42 2.37.23 1.63.16-.18.32-.45.4-.63-.16.72.1.9.3.88.33-.04.68-.84.85-1.25zm3-2.93c-.1 0-.2-.02-.27-.03-.18-.02-.28.05-.38.35-.14.36-.4.98-.66 1.6-.4-.3-.9-.06-1.23.38-.42.6-.73 1.66-.2 1.84.4.12.66-.42.83-.75-.07.26-.02.46.04.57.08.13.17.18.26.18.45 0 .78-.87.92-1.24.05-.13-.04-.15-.1-.03-.1.28-.43 1.1-.72 1.1-.27 0-.1-.55-.03-.7.34-.93 1.34-3.1 1.5-3.27zm-1.36 2.02c-.27.6-.55 1.16-.76 1.5-.48.8-.82.4-.45-.43.3-.68.93-1.4 1.2-1.1zm2.03-1.66c-.5.85-1.23 2.85-1.62 3.46-.04.06 0 .13.04.08.1-.12.34-.6.6-1.2a4.66 4.66 0 0 0-.25.75c-.1.48.13.87.78.67.48-.15.82-.8.93-1.35.07-.43-.04-.87-.46-.94-.26-.05-.26.15-.1.13.37-.04.38.4.23.83-.1.25-.27.6-.43.8-.2.3-.36.43-.5.4-.37-.1-.13-1.04.16-1.7.38-.9 1.05-2 1.25-2.26-.06.02-.14-.02-.22-.02h-.03c-.12 0-.24.1-.38.33zM16.3 9.9c.07-.13-.04-.12-.1 0-.12.36-.43 1.15-.93 1.15-.37 0-.27-.68-.2-.92.16 0 .53-.14.7-.3.37-.32.54-.78.32-.97-.26-.22-.7.04-.98.44-.24.34-.43.85-.43 1.25 0 .42.25.64.54.64.63 0 .87-.76 1.08-1.3zm-.6-.18c-.2.2-.5.3-.6.3.07-.12.2-.42.36-.63.7-1 .73-.15.26.3zm2.77.2c.06-.12-.03-.17-.08-.05-.13.28-.5 1.16-.8 1.16-.06 0-.12-.06-.1-.34.1-.48.7-1.74.7-1.74-.2-.08-.8.34-1.05.63-.17.17-.36.42-.47.6.2-.5.52-1.16.7-1.27-.1.02-.18-.02-.25-.03-.18 0-.26.12-.4.44-.28.6-.52 1.23-.8 1.87.07-.02.12 0 .2-.02.12 0 .17 0 .22-.1.32-.74.6-1.12.8-1.32.43-.5.53-.3.4-.05-.17.3-.27.54-.32.7-.17.64.1.8.3.8.44 0 .77-.85.94-1.26zm1.06-1.55c.02-.16-.07-.28-.2-.28s-.25.1-.27.26c-.02.15.06.27.2.27.13 0 .25-.12.27-.27zm-.8 2.22c0-.06.07-.2.07-.2l.44-1.26c.06-.16.06-.24-.12-.24l-.3.02c0 .04.1.16.05.28l-.37 1.1c-.12.34-.12.86.3.86.43 0 .75-.85.9-1.22.05-.13-.03-.18-.07-.06-.16.37-.35.8-.54 1-.08.08-.2.15-.27.14-.16-.02-.17-.2-.12-.42z" word-spacing="0" letter-spacing=".323" font-size="7.114" font-weight="400" style="line-height:1.25;-inkscape-font-specification:'Great Vibes, Normal';font-variant-ligatures:normal;font-variant-caps:normal;font-variant-numeric:normal;font-feature-settings:normal;text-align:start" font-family="Great Vibes"/><path fill="#9d7d4a" d="M21.04 12c-.07 0-.1.04-.14.08a3.7 3.7 0 0 0-.52.84c-.12.28-.24.57-.4.85 0-.2-.04-.42-.06-.63-.03-.42-.22-.77-.44-1.1-.05-.08-.05-.26-.2-.23-.07.04-.04.2-.06.3-.08.35-.07.7-.02 1.07a.93.93 0 0 0 .34.6c.25.23.3.47.18.8-.26.6-.6 1.18-.97 1.73a7.8 7.8 0 0 1-.24.34c0 .03-.02.08-.07.06-.05-.02-.02-.08-.02-.12.06-.2.1-.4.16-.62a3.7 3.7 0 0 0-.06-1.94c-.03-.06-.05-.1-.07-.15-.02-.04-.03-.08-.08-.07-.06 0-.05.06-.06.1-.06.58-.3 1.1-.48 1.64-.14.4-.07.8.07 1.2.1.34.06.63-.18.9a7.48 7.48 0 0 1-1.2 1.1c.1-.2.18-.42.26-.6.2-.5.27-1.02.28-1.55V16c0-.05 0-.1-.07-.1-.06-.02-.08.02-.1.06-.13.43-.43.76-.54 1.2-.1.35-.08.7-.1 1.05 0 .28-.08.53-.14.78a.34.34 0 0 1-.16.22c-.76.5-1.56.9-2.4 1.2-.02 0-.04 0-.1 0 .25-.2.45-.4.7-.56.36-.28.63-.63.78-1.08.1-.33.24-.64.35-.97 0-.08.05-.15 0-.2-.08-.02-.1.05-.15.1-.27.3-.6.6-.94.8-.3.2-.42.5-.5.8-.06.3-.16.6-.34.86a.98.98 0 0 1-.65.44c-.43.08-.87.17-1.3.2-.07 0-.16-.02-.16.06 0 .06.1.06.14.08.32.15.66.04 1-.03.17 0 .34-.06.5-.12.1-.04.2-.05.3.02.66.5 1.4.56 2.17.45.33-.04.66-.04.97.08.05.02.1.04.14-.02.03-.05-.05-.1-.1-.1-.5-.26-1-.53-1.55-.6-.3-.06-.63 0-.94.06-.18.03-.35.05-.54-.02.4-.13.78-.3 1.17-.46.15-.07.33 0 .5 0 .9.07 1.8.03 2.65-.28a1.3 1.3 0 0 0 .5-.3.56.56 0 0 0 .1-.18c.04-.06.06-.13 0-.18-.04-.04-.1-.03-.15 0-.02 0-.05.02-.08.03-.43.18-.88.26-1.36.18-.3-.04-.6.1-.9.24-.23.1-.46.2-.72.2.58-.3 1.13-.67 1.63-1.1a.23.23 0 0 1 .17-.05c.2 0 .38-.02.56-.02.44 0 .85-.1 1.23-.34a5.64 5.64 0 0 0 1.1-.86c.03-.04.1-.08.06-.14-.07-.05-.1 0-.16.02a1.1 1.1 0 0 1-.38.1c-.7.03-1.32.26-1.84.74-.06.05-.13.13-.23.14 0-.08.05-.1.1-.15.2-.2.4-.4.57-.63.23-.34.53-.5.9-.6.82-.22 1.4-.73 1.78-1.5.1-.2.2-.4.3-.6.03-.05.05-.12 0-.15-.04-.03-.08 0-.1.05-.12.12-.26.2-.4.25a2.45 2.45 0 0 0-.8.7c-.18.22-.33.46-.54.64-.13.15-.26.3-.46.4.1-.23.25-.4.38-.6.36-.53.67-1.12.95-1.7.13-.27.27-.47.5-.63.32-.23.5-.53.57-.9.06-.27.1-.53.13-.8 0-.06.02-.13-.06-.15zm-7.15 7.15c.03-.13.07-.27.2-.37.32-.28.67-.52 1.02-.85-.35 1.16-.8 1.8-1.5 2.1.1-.3.2-.58.28-.88zm2.06 1.97c-.22-.03-.4-.04-.56 0-.4.1-.8.05-1.2 0a1.27 1.27 0 0 1-.64-.3c.8-.23 1.6-.2 2.4.3zm-.05-1.36c.35-.15.7-.23 1.08-.17.3.02.57-.04.85-.15.13-.04.25-.08.4-.14-.15.3-.4.4-.65.5-.75.3-1.53.23-2.3.3 0-.02 0-.03 0-.05.2-.1.4-.2.64-.3zm1.06-3.52c.13.9-.17 1.72-.6 2.54.02-.92-.04-1.8.6-2.54zm2.53 1.4c-.65.67-1.7 1.1-2.35.97.68-.55 1.4-1.02 2.34-.96zm-1.4-.66c0-.07-.03-.15-.06-.22-.2-.54-.18-1.07.06-1.6a4.53 4.53 0 0 0 .2-.6c.03-.13.04-.28.1-.42.3.98.07 1.92-.25 2.84zm1.54-1.12a2.4 2.4 0 0 1 1.03-.8c-.4 1.04-1.25 1.83-2.05 1.85a4.7 4.7 0 0 0 1.03-1.03zm.23-1.93c-.67-.46-.65-1.14-.5-1.88.38.6.6 1.43.5 1.88zM21 12.26c0 .16-.06.3-.1.46-.06.53-.32.95-.83 1.26.18-.42.3-.82.5-1.2a3.05 3.05 0 0 1 .35-.55c.03-.02.05-.06.1-.05.02 0 0 .05 0 .08z" class="st2"/><path fill="#9d7d4a" d="M18.13 19.27c-.38.08-.74.25-1.14.2-.47-.02-.94.06-1.35.3-.14.1-.56.14-.43.38.24.1.53.02.78.03.75-.06 1.6-.08 2.2-.6.12-.08.13-.3-.06-.3zm1.1-1.75c-.65.02-1.26.33-1.8.72-.12.13-.43.23-.35.45.3.1.63 0 .93-.06.6-.2 1.18-.5 1.56-1 0-.17-.2-.13-.32-.13zm1.36-2.55c-.58.22-.97.72-1.34 1.18-.2.27-.5.45-.67.72.06.24.37.08.55.04.76-.3 1.3-1 1.6-1.76.02-.1-.07-.18-.16-.16zm.36-2.88c-.27.1-.36.45-.5.7-.17.35-.38.7-.44 1.1.08.24.34.05.43-.07.32-.3.5-.68.6-1.1 0-.2.16-.44.02-.62a.14.14 0 0 0-.1-.02zm-1.6-.1c-.22.1-.14.4-.18.6-.05.56.2 1.14.67 1.43.22-.08.1-.4.13-.58a3.52 3.52 0 0 0-.5-1.4.14.14 0 0 0-.12-.05zm-1 2.15c-.2.13-.14.44-.25.63-.2.56-.4 1.2-.22 1.82.06.16.1.5.33.4.2-.23.2-.57.3-.85.15-.63.24-1.32.03-1.94a.14.14 0 0 0-.16-.06zm-1.5 2.04c-.57.64-.6 1.55-.6 2.36-.02.2.26.25.3.06.33-.74.64-1.55.5-2.36a.13.13 0 0 0-.2-.07zM15 17.94c-.36.18-.67.48-1 .76-.26.36-.34.83-.46 1.26.02.25.3.1.4 0 .63-.43 1.03-1.14 1.22-1.87 0-.1-.07-.16-.15-.15zm-.57 2.63c-.3 0-.64 0-.9.17-.1.25.26.32.43.38.63.2 1.32.1 1.96.02.24-.2-.16-.3-.3-.36a2.58 2.58 0 0 0-1.18-.2z" style="paint-order:markers stroke fill"/><g><g transform="matrix(.967 0 0 .967 .431 -.002)" opacity=".707" filter="url(#b)"><g transform="translate(.864 .525)" opacity=".792" filter="url(#c)"><path fill="#d2aa5c" d="M9.96 16.37c.06-.14-.03-.2-.1-.07-.28.6-.52 1.05-1.12 1.4a3 3 0 0 1-2.32.3c-1.8-.56-.66-3.36-.4-3.7.35.76.98 1.08 1.7 1.2 2.85.4 3.83-2.92 1.14-3.23-1.1-.12-2.13.3-2.88 1.27-.07-.38-.13-.88-.06-1.32.04-.2-.1-.15-.13-.03-.16.5-.1 1.13 0 1.56-.96 1.2-1.4 3.62.34 4.35 1 .44 2 .18 2.7-.3.58-.42.8-.83 1.1-1.44zm-1.04-3.84c2.02.3 1.4 3.07-1.1 2.8-.75-.1-1.36-.44-1.67-1.24.68-1.06 1.74-1.73 2.77-1.58z" style="line-height:1.25;-inkscape-font-specification:'Great Vibes, Normal';font-variant-ligatures:normal;font-variant-caps:normal;font-variant-numeric:normal;font-feature-settings:normal;text-align:start" font-weight="400" font-size="7.715" letter-spacing=".362" word-spacing="0" font-family="Great Vibes"/><path fill="#d2aa5c" d="M12.02 15.3c.13-.3-.4-.3-.6.32-.05.2-.03.48.06.7-.27.68-.65 1.26-.98 1.12-.18-.1 0-.6.17-1.06.1-.22.2-.6.2-.83 0-.34-.05-.3-.25-.28-.06 0-.34.05-.34.05.2.05.12.6-.02.86l-.13.23c-.04.1.05.16.13.04-.2.54-.37 1.16.05 1.24.97.2 1.55-1.82 1.7-2.32 0-.02 0-.03.03-.04zm2.12 1.04c.06-.14-.07-.13-.13 0-.14.36-.5 1.18-1.12 1.18-.46 0-.34-.7-.24-.95.2 0 .64-.14.85-.3.44-.34.64-.8.37-1-.3-.24-.82.02-1.18.44-.3.38-.55.9-.54 1.3 0 .45.32.67.66.67.78 0 1.08-.76 1.33-1.32zm-.72-.2c-.25.22-.6.3-.74.3.07-.1.24-.42.42-.64.85-1.03.88-.13.32.35zM16.06 15h-.33c.1-.2.2-.37.3-.6.5-1.1-.24-1.2-.72-.36-.15.3-.33.63-.5.98h-.4c-.1 0-.1.16 0 .16h.35c-.22.54-.48 1.3-.54 1.76-.1.76.6.88.96.52.26-.25.37-.44.68-1.08.07-.13-.04-.16-.1-.04-.18.38-.4.8-.72 1.05-.22.15-.54.1-.44-.37 0 0 .1-.52.16-.7a4.73 4.73 0 0 0 .92-1.14h.4c.07 0 .1-.16.02-.16zm-.14-.7c-.1.24-.22.48-.35.7h-.34c.17-.4.32-.76.5-1 .42-.6.32 0 .2.3zm-.44.87c-.2.33-.43.65-.7.92.1-.25.23-.6.38-.93z" style="line-height:1.25;-inkscape-font-specification:'Great Vibes, Normal';font-variant-ligatures:normal;font-variant-caps:normal;font-variant-numeric:normal;font-feature-settings:normal;text-align:start" font-weight="400" font-size="7.715" letter-spacing=".362" word-spacing="0" font-family="Great Vibes"/><path fill="none" d="M20.25 18.23c-.92-.06-1.76.43-2.42 1.02.9.1 1.8-.4 2.42-1.02zm-3.23 1.2c.42-.8.74-1.72.6-2.64-.64.7-.6 1.7-.6 2.6zm-2.23 2.4c.45.1.93.07 1.4 0 .24 0 .53.05.16-.12-.68-.36-1.5-.4-2.24-.15.18.16.42.25.66.3zm3.46-1.32c.24-.03.68-.35.6-.5-.42.2-.9.37-1.36.26-.6-.05-1.1.28-1.63.52.38.07.93-.04 1.37-.05a4.17 4.17 0 0 0 1.03-.2zm-2.54-1.95c-.36.38-.84.62-1.18 1-.15.4-.24.8-.4 1.18.9-.38 1.3-1.32 1.58-2.18zm3.38-3.9c-.1.42-.2.85-.38 1.26-.2.53-.14 1.1.07 1.6.13.2.17-.43.25-.55.22-.75.3-1.56.05-2.3zm2.7-2.05c-.35.3-.52.8-.7 1.2-.06.23-.45.87-.04.5.43-.32.62-.83.7-1.34 0-.1.08-.27.03-.37zm-1.16 1.8c.1-.68-.18-1.36-.53-1.94-.13.66-.12 1.48.5 1.9zm.83 1.16c-.56.2-.95.67-1.3 1.14-.16.28-.72.66-.73.78 1-.13 1.7-1.05 2.03-1.92z"/><path fill="none" d="M21.84 12.4c-.07 0-.1.05-.13.1a3.82 3.82 0 0 0-.52.86c-.12.3-.25.6-.4.88-.02-.22-.05-.43-.07-.66-.02-.43-.22-.8-.44-1.13-.06-.08-.05-.27-.2-.24-.1.04-.06.2-.08.3-.08.37-.06.74-.02 1.1a.96.96 0 0 0 .35.64c.27.24.33.5.2.82-.26.63-.6 1.23-1 1.8a8.06 8.06 0 0 1-.25.35c-.02.04-.04.1-.1.08-.05-.02-.02-.1 0-.12.04-.22.1-.43.14-.64a3.84 3.84 0 0 0-.07-2c-.02-.06-.04-.1-.06-.16-.02-.04-.04-.08-.1-.07-.04 0-.03.05-.04.1-.04.6-.28 1.13-.48 1.7-.14.4-.08.82.07 1.23.14.36.08.66-.16.93a7.73 7.73 0 0 1-1.23 1.15c.1-.2.18-.42.27-.63.22-.5.28-1.04.3-1.58v-.6c0-.07-.02-.1-.08-.14-.07 0-.1.03-.12.08-.13.44-.44.8-.56 1.25-.1.34-.07.7-.08 1.07 0 .27-.1.52-.16.78a.35.35 0 0 1-.16.25c-.8.5-1.62.93-2.5 1.24 0 0-.03 0-.1-.02.26-.2.48-.4.72-.57.4-.28.67-.64.82-1.1.12-.34.24-.67.36-1 .02-.06.07-.14 0-.18-.07-.03-.1.04-.15.08-.3.33-.6.6-.97.84-.3.2-.44.5-.52.83-.05.3-.16.6-.34.87a1.02 1.02 0 0 1-.67.46c-.47.08-.9.18-1.38.2-.07 0-.16 0-.17.07 0 .07.1.07.14.1.34.14.7.02 1.04-.04.18-.04.36-.1.53-.17.1-.04.2-.05.3.03.68.5 1.44.6 2.25.47.34-.04.67-.04 1 .08.05.03.1.06.14 0 .03-.08-.05-.1-.1-.13-.5-.25-1.02-.54-1.6-.62-.33-.05-.66.02-1 .08-.17.02-.35.04-.54-.02.4-.13.8-.3 1.2-.5.16-.05.35.03.5.04.95.06 1.87.02 2.76-.3a1.35 1.35 0 0 0 .5-.32.57.57 0 0 0 .14-.17c.03-.06.05-.14 0-.2-.06-.02-.12-.02-.18 0-.03 0-.06.03-.08.04-.45.2-.9.26-1.4.2-.34-.06-.64.1-.94.23-.24.1-.48.2-.75.23.6-.35 1.17-.7 1.7-1.14a.24.24 0 0 1 .17-.06c.2 0 .38-.02.58-.02.45 0 .88-.1 1.26-.36a5.83 5.83 0 0 0 1.14-.88c.04-.04.1-.07.06-.13-.04-.06-.1 0-.14.02a1.14 1.14 0 0 1-.4.1c-.7.02-1.36.25-1.9.75-.06.06-.13.13-.24.14.02-.08.07-.1.12-.16.2-.2.43-.4.6-.65.22-.36.54-.5.93-.63.84-.23 1.45-.75 1.83-1.55.1-.2.2-.4.32-.63.03-.05.05-.1 0-.16-.05-.03-.1.02-.12.06-.1.12-.26.2-.4.26a2.53 2.53 0 0 0-.85.7c-.16.24-.32.48-.53.67-.14.14-.28.3-.5.4.1-.24.27-.42.4-.6.38-.58.7-1.18 1-1.8.12-.26.27-.48.5-.64.33-.24.5-.56.6-.95.05-.28.1-.55.13-.82 0-.07.02-.14-.06-.17z" class="st0"/><path fill="none" d="M14.46 19.8c.1-.48.62-.65.93-.96.14-.12.42-.46.24-.08-.26.8-.7 1.6-1.5 1.97.12-.3.22-.62.3-.93zm2.14 2.04c-.48-.1-.95.12-1.43.04-.3 0-1-.14-.97-.36.8-.25 1.7-.16 2.4.32zm-.05-1.4c.4-.2.88-.23 1.33-.17.37 0 .7-.17 1.06-.3-.25.5-.85.6-1.33.7-.55.1-1.13.08-1.7.12.1-.2.46-.26.66-.37zm1.08-3.65c.14.9-.2 1.8-.6 2.6 0-.9-.05-1.9.6-2.62zm2.62 1.42c-.6.6-1.42 1.07-2.3 1.04-.28-.04.3-.32.4-.44.56-.4 1.2-.65 1.9-.6zm-1.44-.67c-.15-.48-.27-1-.1-1.52.14-.45.34-.9.4-1.36.17.18.2.95.16 1.34-.08.5-.17 1.15-.43 1.55zm1.6-1.16c.24-.35.78-.8 1.06-.8-.34.85-1 1.7-1.95 1.86-.33.06.3-.28.37-.43a5 5 0 0 0 .54-.64zm.25-2c-.53-.33-.7-1-.6-1.6.04-.2.05-.5.18-.17.28.54.5 1.16.42 1.77zm1.17-1.73c-.06.54-.17 1.13-.6 1.52-.17.14-.5.4-.26 0 .23-.55.43-1.16.84-1.6.05-.03.04.04.03.07z"/><path fill="#d2aa5c" stroke="#d2aa5c" stroke-width=".059" d="M8.43.88c.1-.16.22-.38.3-.6.1-.27.1-.26-.2-.24-.27.03-.5.23-.8.17-.02 0-.04.04-.05.05-.22.1-.44.18-.68.22-.33.05-.6.2-.82.5a1.97 1.97 0 0 0-.36.87c-.03.2-.1.4-.25.58-.08.1-.2.14-.3.2-.05.03-.06.08-.04.14.02.06.06.08.13.06.5-.12 1-.22 1.46-.45a3.7 3.7 0 0 0 1.6-1.5zM8.77.1c-.43.8-.83 1.55-1.64 1.97.26-.3.42-.64.56-1 .04-.16.1-.32.2-.46.16-.3.47-.4.86-.5zM6.2 1.14c.23-.33.52-.6.96-.6-.22.16-.33.4-.47.64-.15.2-.2.47-.35.67-.16.24-.4.4-.66.55.23-.42.22-.88.5-1.26zm-.17 1.4c-.23.06-.47.1-.7.16.07-.1.17-.12.28-.16.53-.22.9-.56 1.07-1.13.16-.5.5-.9 1.04-1.06a.4.4 0 0 1 .26 0c-.2.32-.3.68-.45 1.03-.3.64-.8 1.02-1.45 1.18z" class="st2"/><path fill="#d2aa5c" stroke="#d2aa5c" stroke-width=".059" d="M1.2 4.93c-.16.25-.43.56-.4.83.38.05.72-.2 1.08-.16.32-.15.67-.18 1-.27.6-.2.9-.83.98-1.4 0-.4.48-.47.58-.74-.2-.18-.56.05-.82.06-1 .2-1.9.8-2.43 1.66zm-.4.77c.44-.73.9-1.54 1.7-1.9-.4.4-.54 1-.84 1.48-.2.27-.54.37-.86.42zm2.62-.95c-.18.32-.75.64-.96.54.37-.34.53-.83.78-1.24.14-.23.55-.5.7-.5-.23.36-.26.83-.53 1.18zm.2-1.4c.2-.02.6-.13.7-.1-.34.18-.74.3-1 .6C3 4.2 3 4.78 2.6 5.12c-.26.22-.6.44-.95.38.38-.58.5-1.35 1.1-1.76a2.28 2.28 0 0 1 .9-.4z"/><path fill="#d2aa5c" stroke="#d2aa5c" stroke-width=".034" d="M3.15 6.76c.06.28.08.7.3.86.3-.2.35-.62.66-.8.15-.34.38-.63.58-.93.27-.57.07-1.2-.25-1.7-.26-.3.03-.68-.08-.94-.26.04-.37.43-.55.62a3.8 3.8 0 0 0-.65 2.86zm.26.8c-.16-.83-.37-1.73-.04-2.56-.03.62.32 1.15.4 1.74.02.3-.15.6-.34.83zM4.68 5.1c.1.34-.1.97-.33 1.04.05-.5-.15-.95-.26-1.42-.05-.26.04-.75.15-.84.1.42.4.77.44 1.2zm-.8-1.16c.14-.16.35-.5.44-.54-.12.37-.32.72-.3 1.12-.02.5.36.93.3 1.45-.02.33-.12.7-.4.92-.1-.7-.55-1.3-.42-2.03.05-.34.2-.66.4-.94z"/><path fill="#d2aa5c" stroke="#d2aa5c" stroke-width=".083" d="M6.42.97c-.3-.3-.88.08-1.15.33-.22.33-.27-.35-.5-.43-.2-.18-.46-.73-.7-.3-.5.35-.83.9-.86 1.48-.3.25-.74.38-.95.76-.2.27-.37.6 0 .8.3.35.77.6 1.24.5.13.36.24.8.56 1.05.3.25.74.56 1.1.43.06-.47.6-.74.54-1.24.5.1 1.08-.03 1.45-.43.18-.24.66-.65.5-.94-.3-.2-.88-.22-1.1-.3.37-.36.3-.97 0-1.36a1.78 1.78 0 0 1-.13-.33zM6.16 2.8c-.26.25-.9.24-1 .04.45-.17.84-.6.84-1.1.05-.22.08-.75.36-.7.14.4.38.78.24 1.2a1.05 1.05 0 0 1-.44.57zm.28.7c-.23-.1-.72-.3-.7-.43.36-.1.68-.32 1.07-.23.3 0 1.07.13.57.47-.26.2-.6.3-.92.2zM5 3.96c-.3-.2-.66-.6-.47-.95.5-.17 1.04.05 1.45.35.43.28 1 .33 1.44.03-.05.13-.38.63-.7.73A1.65 1.65 0 0 1 5 3.98zm0 1.37c-.3-.3-.47-.73-.4-1.16.04-.2-.04-.62.18-.28.2.3.64.27.8.55-.04.36-.33.66-.52.92zM4.14 3.2c.33-.23.33.42.4.62-.03.4-.08.8.12 1.17.03.2.5.47.32.52-.52-.02-.83-.48-1.17-.8-.32-.5-.06-1.15.34-1.53zm.1-.77c.26.17.47.57 0 .6-.37.15-.55.54-.67.9-.34.2-.8.03-1.08-.2-.34-.2-.55-.55-.2-.84.36-.5 1-.9 1.6-.7.13.05.24.13.33.2zm-.7-1.1c-.1.25.36.83-.15.7-.06-.24.04-.5.15-.7zM4.86 2.7c-.28.4-.4-.36-.68-.43-.42-.1-.57-.5-.56-.9-.02-.4.38-.6.64-.83.24.1.38.38.57.56.38.45.43 1.15.05 1.6zM6.23.95c-.4.4-.17 1.06-.56 1.45a1.14 1.14 0 0 1-.76.38c.3-.34.3-.8.3-1.22.22-.36.63-.54 1.04-.62z"/><path fill="none" stroke="#202020" stroke-width=".413" d="M-122.13 247.06A28.73 27.93 0 0 1-97.7 215.5a28.73 27.93 0 0 1 32.47 23.72 28.73 27.93 0 0 1-24.4 31.58 28.73 27.93 0 0 1-32.5-23.73" transform="matrix(.366 -.001 .001 .366 44.72 -77.88)" clip-path="url(#a)" stroke-linejoin="round"/><path fill="none" stroke="#202020" stroke-width=".467" d="M-122.13 247.06a28.73 27.93 0 0 1 24.4-31.57 28.73 27.93 0 0 1 32.5 23.67 28.73 27.93 0 0 1-24.34 31.6 28.73 27.93 0 0 1-32.54-23.62" transform="matrix(.323 -.09 .09 .323 18.913 -75.821)" clip-path="url(#a)" stroke-linejoin="round"/><path fill="#202020" d="M5.98 7.24c.36-.35.22-.92-.2-1.16-.42-.25-1.3-.2-1.88.03-.86.38-1.4 1.4-.52 2.1.44.34 1.23.6 1.6.93.7.68.3 1.87-.7 2.48-1.18.73-3.28.55-3.27-1.17 0-.44.14-.9.35-1.3.1-.2.24-.36.4-.5.2-.18.03-.16-.06-.1-.58.3-1.04 1.25-1 1.9.1 1.95 2.6 2.15 3.92 1.2 1-.7 1.8-2 .6-2.86-.44-.32-1.04-.56-1.4-.8-.8-.6-.38-1.37.32-1.66 1.9-.8 2.23.93 1.5 1.03-.2.03-.2.2-.04.14.17-.05.3-.13.4-.22zm2.15 1.98c.1-.3-.34-.3-.5.3a1.23 1.23 0 0 0 .04.7c-.23.7-.55 1.27-.83 1.12-.15-.08 0-.6.14-1.05.08-.25.16-.63.17-.86 0-.34-.04-.3-.2-.28-.06 0-.3.05-.3.05.16.06.1.6-.02.87l-.1.24c-.04.1.04.15.1.03-.16.53-.3 1.15.04 1.24.82.2 1.3-1.83 1.44-2.33 0 0 .03-.03.04-.03zm2.4 1.05c.05-.14-.04-.18-.1-.06-.1.3-.5 1.2-.75 1.2-.07 0-.1-.14-.06-.43.08-.42.43-1.15.55-1.3-.08.03-.17 0-.25-.02-.18 0-.27.15-.4.44-.15.33-.3.67-.52.96-.27.4-.6.45-.54-.04.04-.25.2-.6.24-.7.2-.4.52-.8.78-.98.22-.14.44-.08.5.18.1.02.15-.1.07-.2-.34-.43-1-.18-1.37.3-.88 1.27-.43 2.48.24 1.72.17-.2.33-.47.42-.65-.17.7.1.9.3.9.35-.06.7-.9.88-1.3zm3.08-3.03c-.06 0-.15-.02-.23-.03-.2 0-.3.07-.4.38-.14.38-.4 1-.68 1.64-.43-.28-.94-.04-1.27.4-.43.62-.76 1.74-.2 1.92.4.12.68-.43.85-.77-.05.28 0 .5.06.6.07.14.17.2.26.2.46 0 .8-.9.94-1.3.06-.13-.04-.16-.08-.04-.13.3-.47 1.16-.76 1.16-.28 0-.1-.6-.04-.75.34-.95 1.38-3.2 1.55-3.38zm-1.36 2.08c-.27.6-.57 1.2-.78 1.57-.5.8-.86.4-.47-.48.3-.68.95-1.45 1.24-1.1zm2.1-1.7c-.5.87-1.28 2.94-1.68 3.56-.03.07 0 .14.05.1.13-.14.36-.64.63-1.24a4.82 4.82 0 0 0-.25.76c-.1.5.14.9.8.7.5-.16.86-.82.96-1.4.08-.44-.04-.9-.47-.97-.26-.05-.26.16-.08.14.36-.05.37.4.2.85-.1.28-.26.63-.43.86-.2.3-.37.43-.5.4-.4-.1-.15-1.08.15-1.77.4-.9 1.1-2.03 1.3-2.3-.08 0-.17-.02-.24-.02h-.03c-.13 0-.26.1-.4.34zm2.63 2.63c.06-.15-.06-.13-.1 0-.14.36-.46 1.18-.98 1.18-.4 0-.3-.7-.2-.95.15 0 .53-.15.72-.3.38-.35.55-.82.33-1.02-.26-.22-.7.04-1 .45-.26.38-.46.9-.46 1.3 0 .45.26.68.56.68.65 0 .9-.77 1.12-1.32zm-.6-.2c-.22.2-.53.3-.63.3.05-.1.2-.42.35-.64.7-1 .74-.1.26.37zm2.83.22c.05-.14-.05-.2-.1-.06-.12.3-.5 1.2-.8 1.2-.07 0-.14-.05-.1-.33.08-.48.7-1.8.7-1.8-.2-.07-.8.37-1.07.66-.2.2-.37.45-.5.63.22-.5.54-1.2.72-1.3-.08.02-.17-.03-.25-.03-.18-.02-.26.1-.4.43-.3.63-.54 1.28-.82 1.94.05-.05.1-.04.2-.05.12 0 .17 0 .22-.1.33-.77.62-1.16.8-1.37.47-.5.57-.3.43-.04-.16.3-.27.54-.32.72-.16.65.1.8.33.8.45 0 .8-.87.97-1.3zm1.08-1.62c.03-.16-.07-.28-.2-.28s-.26.12-.28.28c-.02.16.07.28.2.28.14 0 .26-.12.28-.28zm-.82 2.3c0-.04.07-.2.07-.2l.47-1.3c.06-.15.06-.23-.13-.23h-.32c.02.04.1.16.06.3l-.36 1.12c-.12.36-.12.9.32.9.43 0 .77-.88.92-1.26.05-.14-.03-.2-.07-.06-.16.38-.35.8-.55 1.04-.06.07-.17.15-.26.13-.18-.03-.2-.23-.13-.45z" style="line-height:1.25;-inkscape-font-specification:'Great Vibes, Normal';font-variant-ligatures:normal;font-variant-caps:normal;font-variant-numeric:normal;font-feature-settings:normal;text-align:start" font-weight="400" font-size="7.114" letter-spacing=".323" word-spacing="0" font-family="Great Vibes"/><path fill="#d2aa5c" d="M21.84 12.4c-.07 0-.1.05-.13.1a3.82 3.82 0 0 0-.52.86c-.12.3-.25.6-.4.88-.02-.22-.05-.43-.07-.66-.02-.43-.22-.8-.44-1.13-.06-.08-.05-.27-.2-.24-.1.04-.06.2-.08.3-.08.37-.06.74-.02 1.1a.96.96 0 0 0 .35.64c.27.24.33.5.2.82-.26.63-.6 1.23-1 1.8a8.06 8.06 0 0 1-.25.35c-.02.04-.04.1-.1.08-.05-.02-.02-.1 0-.12.04-.22.1-.43.14-.64a3.84 3.84 0 0 0-.07-2c-.02-.06-.04-.1-.06-.16-.02-.04-.04-.08-.1-.07-.04 0-.03.05-.04.1-.04.6-.28 1.13-.48 1.7-.14.4-.08.82.07 1.23.14.36.08.66-.16.93a7.73 7.73 0 0 1-1.23 1.15c.1-.2.18-.42.27-.63.22-.5.28-1.04.3-1.58v-.6c0-.07-.02-.1-.08-.14-.07 0-.1.03-.12.08-.13.44-.44.8-.56 1.25-.1.34-.07.7-.08 1.07 0 .27-.1.52-.16.78a.35.35 0 0 1-.16.25c-.8.5-1.62.93-2.5 1.24 0 0-.03 0-.1-.02.26-.2.48-.4.72-.57.4-.28.67-.64.82-1.1.12-.34.24-.67.36-1 .02-.06.07-.14 0-.18-.07-.03-.1.04-.15.08-.3.33-.6.6-.97.84-.3.2-.44.5-.52.83-.05.3-.16.6-.34.87a1.02 1.02 0 0 1-.67.46c-.47.08-.9.18-1.38.2-.07 0-.16 0-.17.07 0 .07.1.07.14.1.34.14.7.02 1.04-.04.18-.04.36-.1.53-.17.1-.04.2-.05.3.03.68.5 1.44.6 2.25.47.34-.04.67-.04 1 .08.05.03.1.06.14 0 .03-.08-.05-.1-.1-.13-.5-.25-1.02-.54-1.6-.62-.33-.05-.66.02-1 .08-.17.02-.35.04-.54-.02.4-.13.8-.3 1.2-.5.16-.05.35.03.5.04.95.06 1.87.02 2.76-.3a1.35 1.35 0 0 0 .5-.32.57.57 0 0 0 .14-.17c.03-.06.05-.14 0-.2-.06-.02-.12-.02-.18 0-.03 0-.06.03-.08.04-.45.2-.9.26-1.4.2-.34-.06-.64.1-.94.23-.24.1-.48.2-.75.23.6-.35 1.17-.7 1.7-1.14a.24.24 0 0 1 .17-.06c.2 0 .38-.02.58-.02.45 0 .88-.1 1.26-.36a5.83 5.83 0 0 0 1.14-.88c.04-.04.1-.07.06-.13-.04-.06-.1 0-.14.02a1.14 1.14 0 0 1-.4.1c-.7.02-1.36.25-1.9.75-.06.06-.13.13-.24.14.02-.08.07-.1.12-.16.2-.2.43-.4.6-.65.22-.36.54-.5.93-.63.84-.23 1.45-.75 1.83-1.55.1-.2.2-.4.32-.63.03-.05.05-.1 0-.16-.05-.03-.1.02-.12.06-.1.12-.26.2-.4.26a2.53 2.53 0 0 0-.85.7c-.16.24-.32.48-.53.67-.14.14-.28.3-.5.4.1-.24.27-.42.4-.6.38-.58.7-1.18 1-1.8.12-.26.27-.48.5-.64.33-.24.5-.56.6-.95.05-.28.1-.55.13-.82 0-.07.02-.14-.06-.17zm-7.38 7.4c.04-.14.08-.28.2-.38.34-.3.7-.54 1.07-.88-.38 1.2-.86 1.86-1.57 2.2.1-.32.2-.63.3-.94zm2.14 2.04c-.24-.03-.4-.04-.58 0-.4.1-.83.05-1.23 0a1.3 1.3 0 0 1-.7-.3c.85-.25 1.67-.22 2.5.3zm-.05-1.4c.35-.16.72-.24 1.1-.2.3.06.6 0 .88-.1.13-.06.25-.1.4-.16-.15.3-.4.42-.66.52-.77.3-1.6.23-2.38.3 0-.02-.03-.03-.03-.05.2-.1.44-.22.67-.3zm1.08-3.65c.13.92-.18 1.76-.6 2.6 0-.94-.06-1.87.6-2.62zm2.62 1.42c-.67.7-1.75 1.16-2.42 1.02.7-.6 1.44-1.08 2.42-1.02zm-1.44-.67c0-.07 0-.15-.04-.23-.22-.56-.2-1.1.05-1.64a4.68 4.68 0 0 0 .23-.63c.04-.15.05-.3.1-.45.3 1.02.08 2-.25 2.94zm1.6-1.16a2.48 2.48 0 0 1 1.08-.85c-.4 1.1-1.3 1.9-2.12 1.93a4.86 4.86 0 0 0 1.05-1.1zm.25-2c-.7-.5-.67-1.18-.53-1.95.42.62.64 1.48.54 1.95zm1.17-1.73c0 .16-.05.32-.07.47-.1.55-.36 1-.88 1.3.18-.43.32-.84.52-1.23a3.15 3.15 0 0 1 .35-.56c.02-.02.04-.06.07-.05.03 0 0 .04 0 .07z" class="st2"/><path fill="#d2aa5c" d="M18.84 19.93c-.4.08-.77.26-1.18.2-.48 0-.96.07-1.4.3-.13.12-.56.16-.43.4.24.1.53.03.8.04.77-.07 1.65-.08 2.27-.62.12-.1.14-.33-.06-.32zM20 18.1c-.7.04-1.33.36-1.87.76-.14.14-.47.24-.38.47.3.1.66.03.97-.04.6-.24 1.2-.54 1.6-1.05 0-.18-.2-.14-.33-.15zm1.38-2.62c-.6.23-1 .74-1.37 1.22-.2.28-.5.47-.7.75.1.25.4.08.6.03.78-.33 1.35-1.05 1.65-1.83.02-.1-.07-.2-.16-.17zm.4-2.98c-.3.14-.38.5-.54.73-.17.38-.38.75-.45 1.16.06.23.32.03.42-.1.33-.3.53-.7.6-1.14.03-.2.18-.46.04-.64a.14.14 0 0 0-.1-.02zm-1.67-.1c-.2.13-.12.45-.16.65-.06.57.2 1.17.68 1.47.24-.1.13-.4.15-.6a3.63 3.63 0 0 0-.5-1.46.15.15 0 0 0-.14-.05zm-1 2.25c-.2.13-.16.45-.27.65-.23.58-.44 1.25-.24 1.9.05.15.1.5.34.4.2-.23.2-.6.3-.88.15-.65.23-1.36.02-2a.14.14 0 0 0-.16-.07zm-1.6 2.1c-.56.68-.57 1.6-.6 2.45 0 .2.3.27.34.06.33-.76.65-1.6.5-2.44a.13.13 0 0 0-.22-.06zm-1.9 1.82c-.36.2-.7.5-1 .78-.3.37-.4.86-.5 1.3 0 .25.3.1.4 0 .66-.45 1.08-1.18 1.28-1.94 0-.06-.07-.13-.16-.12zM15 21.3c-.3 0-.65 0-.9.18-.12.25.25.33.42.4.66.2 1.37.1 2.04 0 .23-.2-.2-.3-.34-.36a2.67 2.67 0 0 0-1.2-.23z" style="paint-order:markers stroke fill"/></g></g></g></g></svg>